<svg width="187" height="148" fill="none" xmlns="http://www.w3.org/2000/svg"><path d="M165.365 78.861c0 38.186-31.007 69.139-69.275 69.139-38.253 0-69.274-30.953-69.274-69.139 0-38.186 31.007-69.152 69.274-69.152 38.268 0 69.275 30.953 69.275 69.152z" fill="#121415"/><path d="M133.263 66.663c0 6.113-4.96 11.064-11.084 11.064s-11.084-4.951-11.084-11.064 4.96-11.064 11.084-11.064 11.084 4.965 11.084 11.064zm-11.07-16.265l-.042-.249-.041.25v-.513l-7.579-47.48h15.241l-7.579 47.48v.512zm-6.207 1.232l-.139-.222.056.249-.194-.47-25.133-41.021 7.01-2.877.084-.028 6.996-2.89 11.126 46.788.194.47zm-5.279 3.47l-.291-.207.208.29-.499-.511-54.242-39.68 7.496-7.454.083-.083L70.972 0l39.236 54.589.499.512zm-3.547 5.187l-.457-.11.402.262-.859-.373-86.344-21.548 5.417-13.125.056-.139 5.43-13.125 75.496 47.798.859.36zm-2.466 7.068l-.554.082.554.097-1.094-.014L.394 83.398.52 66.76v-.18l.11-16.638L103.6 67.355h1.094zm32.421 5.835l.249.07-.222-.138.471.207 46.608 12.13-3.048 6.929-.027.069-3.048 6.929-40.526-25.988-.457-.207zm1.371-6.168l.25-.027-.25-.056.499.014 47.73-6.514-.166 7.565-.014.084-.166 7.565-47.384-8.617-.499-.014zm-1.094-6.223l.221-.125-.249.056.471-.18 41.634-24.176 2.73 7.054.027.083 2.73 7.053-47.093 10.055-.471.18zm-3.395-5.339l.167-.193-.222.138.374-.346 29.275-38.186 5.21 5.49.055.056 5.224 5.49-39.709 27.206-.374.345zm-5.154-3.651l.056-.235-.139.207.208-.456 12.497-46.443 6.914 3.084.083.042 6.914 3.084-26.325 40.26-.208.457z" fill="#fff"/><path d="M31.873 104.794a69.295 69.295 0 0015.24 22.944l6.11-4.052c-4.42-9.764-21.24-18.837-21.35-18.892zm-3.103-9.64s30.286-6.044 64.438 7.316c0 0-5.638 3.582-10.585 8.824.014 0-8.922-12.96-53.854-16.14zm1.537 5.366s28.97-.194 42.119 14.826c0 0-11.015 8.105-14.7 8.34 0 0-6.276-13.443-27.419-23.166z" fill="#26B9FF"/><path d="M47.113 127.738s38.184-43.469 116.756-34.41c0 0-37.187-3.264-63.705 18.187-26.533 21.465-48.27 15.753-53.05 16.223z" fill="#2D8EFF"/><path d="M49.039 129.163s27.488 10.968 51.125-11.203c23.636-22.17 62.056-23.207 63.261-22.723 0 0-28.638 6.279-43.92 24.397-15.31 18.118-55.433 27.177-70.466 9.529z" fill="#2EE6FF"/><path d="M137.323 85.666h-.679v6.888h.679v-6.888z" fill="#755441"/><path d="M140.731 80.41c0 4.357-1.677 7.898-3.755 7.898s-3.755-3.527-3.755-7.898c0-4.356 1.677-7.897 3.755-7.897s3.755 3.54 3.755 7.897z" fill="#26B9FF"/><path d="M114.947 127.738c-29.054 21.866-57.055 8.755-57.221 8.686C68.713 143.74 81.903 148 96.104 148c31.991 0 58.911-21.645 66.878-51.076-26.505 7.095-18.898 8.879-48.035 30.814z" fill="#2D8EFF"/><path d="M143.363 83.26h-.914v9.294h.914V83.26z" fill="#755441"/><path d="M142.948 83.785c2.946 0 5.334-5.307 5.334-11.853 0-6.546-2.388-11.852-5.334-11.852-2.946 0-5.335 5.306-5.335 11.852s2.389 11.853 5.335 11.853z" fill="#2D8EFF"/><path d="M148.891 83.26h-.914v9.294h.914V83.26z" fill="#755441"/><path d="M153.491 76.165c0 5.877-2.272 10.649-5.071 10.649-2.798 0-5.071-4.771-5.071-10.65 0-5.877 2.273-10.649 5.071-10.649 2.813 0 5.071 4.772 5.071 10.65z" fill="#26B9FF"/><path d="M51.131 137.42l-.097-.567c-.097-.526-8.853-53.137 18.746-96.274l.152-.236 1.164.761-.153.221c-2.424 3.86-23.414 39.182-13.896 95.293l.139.802H51.13z" fill="#121415"/><path d="M51.713 136.728S42.555 84.172 70.5 40.717c0 0-24.218 36.582-14.146 96.011h-4.641z" fill="#fff"/><path d="M48.138 99.04c-1.538 0-3.74-1.037-5.542-5.96-1.634-4.468-.041-10.678.014-10.955l.25-.968.817.581c.222.152 5.459 3.873 7.094 8.34 2.397 6.528-.208 8.284-1.441 8.74-.388.153-.79.222-1.192.222z" fill="#121415"/><path d="M43.29 82.305s-1.622 6.21-.042 10.539c1.579 4.329 3.727 6.113 5.86 5.339 2.134-.775 2.605-3.527 1.026-7.856-1.594-4.315-6.845-8.022-6.845-8.022z" fill="#fff"/><path d="M57.81 99.04a3.423 3.423 0 01-1.94-.609c-1.164-.788-1.677-2.033-1.51-3.623.152-1.48.914-3.236 2.244-5.2 2.674-3.942 8.659-6.28 8.908-6.376l.929-.36.014.996c0 .277.041 6.68-2.647 10.622-2.009 2.987-4.087 4.55-5.999 4.55z" fill="#121415"/><path d="M65.762 83.882s-6 2.31-8.59 6.113c-2.591 3.803-2.785 6.597-.915 7.87 1.87 1.272 4.392.055 6.983-3.749 2.591-3.803 2.522-10.234 2.522-10.234z" fill="#fff"/><path d="M49.815 86.247c-1.372 0-3.852-.871-5.154-6.666-1.04-4.648 1.358-10.595 1.454-10.844l.375-.926.734.677c.194.18 4.905 4.55 5.944 9.198.526 2.323.582 4.218.18 5.656-.43 1.536-1.386 2.504-2.743 2.808-.264.07-.527.097-.79.097z" fill="#121415"/><path d="M46.767 69s-2.425 5.947-1.427 10.442c.997 4.495 2.895 6.542 5.112 6.058 2.217-.498 3.048-3.153 2.05-7.648C51.493 73.357 46.768 69 46.768 69z" fill="#fff"/><path d="M60.137 86.344a3.331 3.331 0 01-2.23-.83c-.998-.844-2.841-3.375 1.648-8.7 3.076-3.637 9.269-5.338 9.532-5.407l.97-.263-.097.996c-.028.276-.665 6.652-3.741 10.29-2.161 2.572-4.267 3.914-6.082 3.914z" fill="#121415"/><path d="M69.281 72.085s-6.207 1.673-9.186 5.186-3.464 6.265-1.732 7.717c1.732 1.466 4.365.512 7.343-3 2.965-3.514 3.575-9.903 3.575-9.903z" fill="#fff"/><path d="M53.14 73.412c-1.053 0-3.547-.608-3.949-6.224-.29-3.969 2.411-8.574 2.536-8.768l.512-.858.624.775c.138.18 3.477 4.357 3.768 8.312.416 5.85-2.133 6.666-3.242 6.75-.097.013-.166.013-.249.013z" fill="#121415"/><path d="M52.322 58.766s-2.715 4.578-2.438 8.367c.277 3.804 1.566 5.712 3.45 5.574 1.87-.138 2.882-2.213 2.605-6.016-.277-3.79-3.617-7.925-3.617-7.925z" fill="#fff"/><path d="M61.508 74.657a2.91 2.91 0 01-1.496-.415c-.72-.415-1.58-1.286-1.524-3.015.041-1.259.568-2.766 1.566-4.481 1.995-3.444 6.83-5.74 7.038-5.823l.9-.428.084.995c.013.222.415 5.546-1.58 8.99-1.566 2.739-3.297 4.177-4.988 4.177z" fill="#121415"/><path d="M67.397 61.56s-4.822 2.254-6.734 5.546c-1.912 3.291-1.912 5.6-.29 6.541 1.62.94 3.63-.207 5.541-3.499 1.912-3.291 1.483-8.589 1.483-8.589z" fill="#fff"/><path d="M58.322 61.13c-.125 0-.264-.013-.388-.027-.748-.097-1.76-.526-2.3-1.978-.388-1.037-.457-2.448-.222-4.176.485-3.458 3.644-6.916 3.769-7.068l.679-.733.457.885c.083.18 2.189 4.357 1.704 7.828-.623 4.592-2.577 5.27-3.7 5.27z" fill="#121415"/><path d="M59.707 48.351s-3.145 3.403-3.602 6.694c-.457 3.292.305 5.145 1.926 5.38 1.62.222 2.854-1.369 3.311-4.647.457-3.291-1.635-7.427-1.635-7.427z" fill="#fff"/><path d="M65.124 61.947a2.687 2.687 0 01-1.468-.443c-.845-.553-2.48-2.296.36-6.638 1.912-2.919 6.249-4.703 6.429-4.786l.928-.373.028.996c0 .193.11 4.882-1.801 7.8-1.469 2.254-3.007 3.444-4.475 3.444z" fill="#121415"/><path d="M70.722 50.73s-4.295 1.743-6.11 4.523c-1.815 2.78-1.926 4.785-.568 5.684 1.371.9 3.173-.014 4.988-2.794 1.815-2.78 1.69-7.413 1.69-7.413z" fill="#fff"/><path d="M63.06 49.914c-.097 0-.208 0-.305-.027-.817-.111-1.455-.65-1.773-1.522-.277-.76-.333-1.784-.166-3.029.346-2.49 2.604-4.965 2.701-5.062l.68-.733.456.886c.07.124 1.566 3.111 1.22 5.615-.485 3.374-1.968 3.872-2.813 3.872z" fill="#121415"/><path d="M64.03 40.745s-2.203 2.392-2.522 4.688c-.318 2.31.208 3.61 1.344 3.776 1.136.152 2.01-.954 2.328-3.264.319-2.296-1.15-5.2-1.15-5.2z" fill="#fff"/><path d="M68.962 51.048a2.09 2.09 0 01-1.385-.525c-.624-.54-.86-1.342-.651-2.24.18-.79.692-1.674 1.524-2.615 1.648-1.895 4.904-2.724 5.043-2.766l.97-.249-.111.996c-.014.138-.402 3.458-2.065 5.352-1.177 1.356-2.3 2.047-3.325 2.047z" fill="#121415"/><path d="M73.66 43.566s-3.16.788-4.684 2.545c-1.538 1.756-1.801 3.14-.942 3.886.859.747 2.203.29 3.74-1.452 1.525-1.743 1.885-4.979 1.885-4.979z" fill="#fff"/><path d="M68.38 45.392c-.277 0-.568-.056-.83-.18-.707-.304-2.176-1.383-.666-4.896.998-2.31 3.824-4.094 3.949-4.163l.845-.526.194.982c.028.139.679 3.416-.319 5.726-1.08 2.517-2.327 3.057-3.173 3.057z" fill="#121415"/><path d="M71.207 36.734s-2.757 1.715-3.686 3.858c-.928 2.144-.762 3.541.291 3.998 1.053.456 2.19-.388 3.104-2.532.928-2.143.29-5.324.29-5.324z" fill="#fff"/><path d="M52.78 142.247l.512-.637c30.246-38.213 29.04-73.343 28.79-77.23l-.013-.234 1.385-.11.014.248c2.965 43.774-25.313 79.733-25.604 80.092l-.36.457-4.724-2.586z" fill="#121415"/><path d="M57.324 143.934s28.528-35.724 25.438-79.857c0 0 3.131 37.425-28.93 77.948l3.492 1.909z" fill="#fff"/><path d="M77.012 117.559c-.942 0-1.76-.359-2.37-1.051-.567-.65-1.121-1.77-.484-3.43.457-1.217 1.468-2.517 3.02-3.859 3.104-2.71 8.59-3.36 8.826-3.388l.997-.111-.249.968c-.055.222-1.427 5.574-4.53 8.285-1.968 1.715-3.727 2.586-5.21 2.586z" fill="#121415"/><path d="M86.073 106.509s-1.344 5.338-4.309 7.938c-2.965 2.6-5.32 3.057-6.595 1.605-1.274-1.453-.512-3.721 2.466-6.321 2.965-2.6 8.438-3.222 8.438-3.222z" fill="#fff"/><path d="M69.669 113.576c-1.316 0-3.616-.816-4.143-6.321-.388-4.093 2.286-8.92 2.397-9.128l.485-.871.651.76c.153.18 3.7 4.413 4.101 8.506.582 6.03-2.022 6.929-3.172 7.04-.111.014-.222.014-.32.014z" fill="#121415"/><path d="M68.533 98.46s3.56 4.204 3.935 8.118c.374 3.928-.624 6.099-2.55 6.279-1.94.18-3.325-1.757-3.699-5.685-.388-3.914 2.314-8.713 2.314-8.713z" fill="#fff"/><path d="M80.947 107.242a3.04 3.04 0 01-2.023-.761c-.873-.761-2.452-3.015 1.552-7.565 2.715-3.085 8.077-4.454 8.299-4.51l.97-.234-.111.996c-.028.235-.679 5.712-3.395 8.81-1.898 2.129-3.727 3.264-5.292 3.264z" fill="#121415"/><path d="M88.941 95.07s-.623 5.464-3.228 8.424c-2.605 2.959-4.877 3.734-6.332 2.448-1.455-1.273-.997-3.624 1.607-6.584 2.605-2.946 7.953-4.287 7.953-4.287z" fill="#fff"/><path d="M73.147 103.092c-1.22 0-3.423-.76-4.462-5.877-.817-4.025 1.344-9.115 1.427-9.322l.388-.913.72.691c.167.166 4.143 3.997 4.96 8.036.402 2.005.43 3.651.056 4.896-.513 1.701-1.62 2.268-2.466 2.434a4.689 4.689 0 01-.623.055z" fill="#121415"/><path d="M70.75 88.156s3.976 3.803 4.766 7.662c.79 3.858.027 6.127-1.885 6.514-1.898.387-3.491-1.411-4.28-5.27-.777-3.844 1.399-8.906 1.399-8.906z" fill="#fff"/><path d="M83.538 96.191c-.513 0-.984-.138-1.427-.429-.832-.54-2.467-2.24.304-6.541 1.87-2.891 6.124-4.661 6.304-4.744l.929-.388.027.996c0 .194.139 4.8-1.731 7.69-1.441 2.24-2.965 3.416-4.406 3.416z" fill="#121415"/><path d="M88.983 85.113s.152 4.55-1.621 7.288c-1.774 2.739-3.533 3.638-4.891 2.78-1.344-.87-1.26-2.849.513-5.587 1.787-2.739 5.999-4.481 5.999-4.481z" fill="#fff"/><path d="M76.749 93.674c-.97 0-3.228-.54-3.353-5.588-.083-3.43 2.424-7.302 2.535-7.454l.555-.83.595.802c.111.152 2.827 3.886 2.91 7.33.041 1.715-.18 3.084-.68 4.053-.692 1.369-1.717 1.673-2.465 1.687h-.097z" fill="#121415"/><path d="M76.5 81.019s2.687 3.679 2.77 6.93c.084 3.263-.873 4.992-2.48 5.033-1.607.042-2.646-1.645-2.715-4.91-.083-3.25 2.424-7.053 2.424-7.053z" fill="#fff"/><path d="M84.618 84.822c-.29 0-.581-.055-.859-.166-.83-.318-2.59-1.507-.97-5.74 1.081-2.82 4.392-5.13 4.545-5.227l.817-.567.236.968c.041.166.998 4.094-.083 6.915-1.192 3.154-2.66 3.817-3.686 3.817z" fill="#121415"/><path d="M87.722 74.256s.956 3.845-.055 6.5c-1.012 2.656-2.356 3.748-3.658 3.25-1.303-.498-1.58-2.199-.582-4.854 1.011-2.656 4.295-4.896 4.295-4.896z" fill="#fff"/><path d="M79.132 82.623c-.832 0-2.799-.47-3.145-4.785-.236-3.015 1.787-6.514 1.87-6.666l.499-.858.637.775c.111.138 2.66 3.278 2.882 6.293.36 4.522-1.662 5.172-2.55 5.241h-.193z" fill="#121415"/><path d="M78.467 71.517s2.508 3.07 2.73 5.906c.22 2.835-.527 4.384-1.913 4.495-1.4.11-2.369-1.314-2.59-4.15-.236-2.82 1.773-6.25 1.773-6.25z" fill="#fff"/><path d="M85.436 74.38a1.96 1.96 0 01-.68-.124c-.636-.235-2.008-1.148-.803-4.301.776-2.047 3.16-3.693 3.256-3.762l.818-.567.235.968c.028.124.72 2.932-.055 4.979-.873 2.323-1.995 2.807-2.771 2.807z" fill="#121415"/><path d="M87.611 66.76s.665 2.697-.041 4.564c-.707 1.867-1.65 2.628-2.564 2.282-.914-.346-1.108-1.535-.401-3.402.706-1.868 3.006-3.444 3.006-3.444z" fill="#fff"/><path d="M80.517 72.804c-.706 0-1.995-.415-2.604-3.195-.471-2.13.623-4.813.665-4.924l.374-.927.734.678c.083.083 2.203 2.061 2.674 4.19.72 3.292-.748 3.984-1.427 4.136a2.123 2.123 0 01-.416.042z" fill="#121415"/><path d="M79.201 64.934s2.037 1.895 2.466 3.831c.43 1.95.07 3.098-.9 3.306-.956.207-1.774-.678-2.203-2.628-.416-1.936.637-4.509.637-4.509z" fill="#fff"/><path d="M83.302 68.793c-.055 0-.125 0-.194-.014-.679-.07-2.23-.58-1.912-3.928.208-2.171 2.065-4.398 2.148-4.495l.637-.76.485.87c.055.111 1.469 2.642 1.26 4.814-.29 3.167-1.787 3.513-2.424 3.513z" fill="#121415"/><path d="M83.87 60.799s1.358 2.42 1.178 4.412c-.194 1.978-.887 2.973-1.87 2.877-.984-.097-1.483-1.19-1.29-3.181.181-1.978 1.982-4.108 1.982-4.108z" fill="#fff"/></svg>