<svg width="295" height="270" fill="none" xmlns="http://www.w3.org/2000/svg"><g opacity=".8" clip-path="url(#clip0_205_14)"><path d="M1092.97 236.204l-6.87-2.757-6.88 33.643-6.88 3.447-6.87-35.777-6.88-5.12-6.88 14.77-6.88-6.794-6.87-27.834-6.88 73.26-6.88-13.982-6.87-40.602-6.88 13.293-6.88 49.005-6.875-61.018-6.877-10.076-6.877 77.1-6.877-8.468-6.877-12.702-6.877-5.449-6.877-49.891-6.878 32.593-6.877 18.217-6.877-82.418-6.877 26.882-6.877 23.468-6.877-24.026-6.877 80.974-6.877-59.639-6.877-53.6-6.877 11.521-6.877 49.858-6.878-16.674-6.877 23.041-6.877-12.21-6.877 9.158-6.877-32.528-6.877 34.661-6.877 28.195-6.877 27.867-6.877-8.83-6.877-29.803-6.877-97.286-6.878 21.367-6.877 32.166-6.877-40.798-6.877 47.494-6.877-35.383-6.877 20.908-6.877 1.445-6.877.919-6.877-11.291-6.877-36.598-6.878-16.969-6.877 26.455-6.877-23.993-6.877 39.518-6.877-53.665-6.877 115.175-6.877 16.805-6.877-71.356-6.877-32.134-6.877-6.499-6.878-.886-6.877-15.098-6.877 11.619-6.877 41.389-6.877-49.332-6.877 33.643-6.877-45.295-6.877 3.446-6.877 52.09-6.877-5.055-6.877 5.35-6.878-25.011-6.877 2.757-6.877-24.42-6.877 12.703-6.877-16.937-6.877 22.91-6.877-2.724-6.877 4.694-6.877-49.431-6.877 8.501-6.878 26.455-6.877-8.304-6.877 14.179-6.877-27.735-6.877 24.519-6.877-20.679-6.877-.919-6.877 8.862-6.591 6.237-6.877-16.74-6.877 7.516-6.877-7.45-6.877-11.554-6.877 33.249-6.877-13.621-6.877 3.02-6.878 8.14-6.877-24.191-6.877 69.814-6.877 4.464-6.877-14.475-6.877-14.638-6.877-28.195-6.877 33.052-6.877-45.952-6.877 20.679-6.878 107.593-6.877-37.123-6.877-64.398-6.877-9.519-6.877-20.317-6.877 64.037-6.877 1.444-6.877-20.809-6.877-49.694-6.877 24.388-6.877 26.52-6.878-20.777-6.877-38.205-6.877-7.779-6.877 29.507-6.877-13.916-6.877.426-6.877 10.733-6.877-30.623-6.877-3.939-6.877 46.477-6.878-37.287-6.877 11.324-6.877 25.569-6.877 19.563-6.877 13.522-6.877-50.35-6.877-12.374-6.877 23.862-6.877 54.913-6.877-33.578-6.878 6.893-6.877 2.659-6.877-44.016-6.877-18.512-6.877 7.353-6.877 3.873-6.877-18.709-6.877-15.92-6.877 56.554-6.877 60.755-6.878-35.219-6.877-33.774-6.877 11.947-6.877-43.687-6.877-37.812-6.877-17.133-6.877 7.68L6.68 84.662-.197 98.546l-6.877-8.305-6.84-24.288v239.639H1092.97v-69.388z" fill="url(#paint0_linear_205_14)"/><path d="M824.768 305.592l6.877-27.867 6.877-28.195 6.877-34.661 6.877 32.528 6.877-9.158 6.877 12.21 6.877-23.041 6.878 16.674 6.877-49.858 6.877-11.521 6.877 53.6 6.877 59.639 6.877-80.974 6.877 24.026 6.877-23.468 6.877-26.882 6.877 82.418 6.877-18.217 6.878-32.593 6.877 49.891 6.877 5.449 6.877 12.702 6.877 8.468 6.877-77.1 6.877 10.076 6.875 61.018 6.88-49.005 6.88-13.293 6.87 40.602 6.88 13.982 6.88-73.26 6.87 27.834 6.88 6.794 6.88-14.77 6.88 5.12 6.87 35.777 6.88-3.447 6.88-33.643 6.87 2.757v69.388H824.768zm0 0l-6.877-8.83-6.877-29.803-6.877-97.286-6.878 21.367-6.877 32.166-6.877-40.798-6.877 47.494-6.877-35.383-6.877 20.908-6.877 1.445-6.877.919-6.877-11.291-6.877-36.598-6.878-16.969-6.877 26.455-6.877-23.993-6.877 39.518-6.877-53.665-6.877 115.175-6.877 16.805-6.877-71.356-6.877-32.134-6.877-6.499-6.878-.886-6.877-15.098-6.877 11.619-6.877 41.389-6.877-49.332-6.877 33.643-6.877-45.295-6.877 3.446-6.877 52.09-6.877-5.055-6.877 5.35-6.878-25.011-6.877 2.757-6.877-24.42-6.877 12.703-6.877-16.937-6.877 22.91-6.877-2.724-6.877 4.694-6.877-49.431-6.877 8.501-6.878 26.455-6.877-8.304-6.877 14.179-6.877-27.735-6.877 24.519-6.877-20.679-6.877-.919-6.877 8.862-6.591 6.237-6.877-16.74-6.877 7.516-6.877-7.45-6.877-11.554-6.877 33.249-6.877-13.621-6.877 3.02-6.878 8.14-6.877-24.191-6.877 69.814-6.877 4.464-6.877-14.475-6.877-14.638-6.877-28.195-6.877 33.052-6.877-45.952-6.877 20.679-6.878 107.593-6.877-37.123-6.877-64.398-6.877-9.519-6.877-20.317-6.877 64.037-6.877 1.444-6.877-20.809-6.877-49.694-6.877 24.388-6.877 26.52-6.878-20.777-6.877-38.205-6.877-7.779-6.877 29.507-6.877-13.916-6.877.426-6.877 10.733-6.877-30.623-6.877-3.939-6.877 46.477-6.878-37.287-6.877 11.324-6.877 25.569-6.877 19.563-6.877 13.522-6.877-50.35-6.877-12.374-6.877 23.862-6.877 54.913-6.877-33.578-6.878 6.893-6.877 2.659-6.877-44.016-6.877-18.512-6.877 7.353-6.877 3.873-6.877-18.709-6.877-15.92-6.877 56.554-6.877 60.755-6.878-35.219-6.877-33.774-6.877 11.947-6.877-43.687-6.877-37.812-6.877-17.133-6.877 7.68L6.68 84.662-.197 98.546l-6.877-8.305-6.84-24.288v239.639h838.681z" stroke="#646981" stroke-linejoin="round"/><path d="M824.768 305.592l6.877-27.867 6.877-28.195 6.877-34.661 6.877 32.528 6.877-9.158 6.877 12.21 6.877-23.041 6.878 16.674 6.877-49.858 6.877-11.521 6.877 53.6 6.877 59.639 6.877-80.974 6.877 24.026 6.877-23.468 6.877-26.882 6.877 82.418 6.877-18.217 6.878-32.593 6.877 49.891 6.877 5.449 6.877 12.702 6.877 8.468 6.877-77.1 6.877 10.076 6.875 61.018 6.88-49.005 6.88-13.293 6.87 40.602 6.88 13.982 6.88-73.26 6.87 27.834 6.88 6.794 6.88-14.77 6.88 5.12 6.87 35.777 6.88-3.447 6.88-33.643 6.87 2.757v69.388H824.768zm0 0l-6.877-8.83-6.877-29.803-6.877-97.286-6.878 21.367-6.877 32.166-6.877-40.798-6.877 47.494-6.877-35.383-6.877 20.908-6.877 1.445-6.877.919-6.877-11.291-6.877-36.598-6.878-16.969-6.877 26.455-6.877-23.993-6.877 39.518-6.877-53.665-6.877 115.175-6.877 16.805-6.877-71.356-6.877-32.134-6.877-6.499-6.878-.886-6.877-15.098-6.877 11.619-6.877 41.389-6.877-49.332-6.877 33.643-6.877-45.295-6.877 3.446-6.877 52.09-6.877-5.055-6.877 5.35-6.878-25.011-6.877 2.757-6.877-24.42-6.877 12.703-6.877-16.937-6.877 22.91-6.877-2.724-6.877 4.694-6.877-49.431-6.877 8.501-6.878 26.455-6.877-8.304-6.877 14.179-6.877-27.735-6.877 24.519-6.877-20.679-6.877-.919-6.877 8.862-6.591 6.237-6.877-16.74-6.877 7.516-6.877-7.45-6.877-11.554-6.877 33.249-6.877-13.621-6.877 3.02-6.878 8.14-6.877-24.191-6.877 69.814-6.877 4.464-6.877-14.475-6.877-14.638-6.877-28.195-6.877 33.052-6.877-45.952-6.877 20.679-6.878 107.593-6.877-37.123-6.877-64.398-6.877-9.519-6.877-20.317-6.877 64.037-6.877 1.444-6.877-20.809-6.877-49.694-6.877 24.388-6.877 26.52-6.878-20.777-6.877-38.205-6.877-7.779-6.877 29.507-6.877-13.916-6.877.426-6.877 10.733-6.877-30.623-6.877-3.939-6.877 46.477-6.878-37.287-6.877 11.324-6.877 25.569-6.877 19.563-6.877 13.522-6.877-50.35-6.877-12.374-6.877 23.862-6.877 54.913-6.877-33.578-6.878 6.893-6.877 2.659-6.877-44.016-6.877-18.512-6.877 7.353-6.877 3.873-6.877-18.709-6.877-15.92-6.877 56.554-6.877 60.755-6.878-35.219-6.877-33.774-6.877 11.947-6.877-43.687-6.877-37.812-6.877-17.133-6.877 7.68L6.68 84.662-.197 98.546l-6.877-8.305-6.84-24.288v239.639h838.681z" stroke="url(#paint1_linear_205_14)" stroke-linejoin="round"/><path d="M1092.97 236.204l-6.87-2.757-6.88 33.643-6.88 3.447-6.87-35.777-6.88-5.12-6.88 14.77-6.88-6.794-6.87-27.834-6.88 73.26-6.88-13.982-6.87-40.602-6.88 13.293-6.88 49.005-6.875-61.018-6.877-10.076-6.877 77.1-6.877-8.468-6.877-12.702-6.877-5.449-6.877-49.891-6.878 32.593-6.877 18.217-6.877-82.418-6.877 26.882-6.877 23.468-6.877-24.026-6.877 80.974-6.877-59.639-6.877-53.6-6.877 11.521-6.877 49.858-6.878-16.674-6.877 23.041-6.877-12.21-6.877 9.158-6.877-32.528-6.877 34.661-6.877 28.195-6.877 27.867-6.877-8.83-6.877-29.803-6.877-97.286-6.878 21.367-6.877 32.166-6.877-40.798-6.877 47.494-6.877-35.383-6.877 20.908-6.877 1.445-6.877.919-6.877-11.291-6.877-36.598-6.878-16.969-6.877 26.455-6.877-23.993-6.877 39.518-6.877-53.665-6.877 115.175-6.877 16.805-6.877-71.356-6.877-32.134-6.877-6.499-6.878-.886-6.877-15.098-6.877 11.619-6.877 41.389-6.877-49.332-6.877 33.643-6.877-45.295-6.877 3.446-6.877 52.09-6.877-5.055-6.877 5.35-6.878-25.011-6.877 2.757-6.877-24.42-6.877 12.703-6.877-16.937-6.877 22.91-6.877-2.724-6.877 4.694-6.877-49.431-6.877 8.501-6.878 26.455-6.877-8.304-6.877 14.179-6.877-27.735-6.877 24.519-6.877-20.679-6.877-.919-6.877 8.862-6.591 6.237-6.877-16.74-6.877 7.516-6.877-7.45-6.877-11.554-6.877 33.249-6.877-13.621-6.877 3.02-6.878 8.14-6.877-24.191-6.877 69.814-6.877 4.464-6.877-14.475-6.877-14.638-6.877-28.195-6.877 33.052-6.877-45.952-6.877 20.679-6.878 107.593-6.877-37.123-6.877-64.398-6.877-9.519-6.877-20.317-6.877 64.037-6.877 1.444-6.877-20.809-6.877-49.694-6.877 24.388-6.877 26.52-6.878-20.777-6.877-38.205-6.877-7.779-6.877 29.507-6.877-13.916-6.877.426-6.877 10.733-6.877-30.623-6.877-3.939-6.877 46.477-6.878-37.287-6.877 11.324-6.877 25.569-6.877 19.563-6.877 13.522-6.877-50.35-6.877-12.374-6.877 23.862-6.877 54.913-6.877-33.578-6.878 6.893-6.877 2.659-6.877-44.016-6.877-18.512-6.877 7.353-6.877 3.873-6.877-18.709-6.877-15.92-6.877 56.554-6.877 60.755-6.878-35.219-6.877-33.774-6.877 11.947-6.877-43.687-6.877-37.812-6.877-17.133-6.877 7.68L6.68 84.662-.197 98.546l-6.877-8.305-6.84-24.288" stroke="#646981" stroke-linecap="round" stroke-linejoin="round"/><path d="M1092.97 236.204l-6.87-2.757-6.88 33.643-6.88 3.447-6.87-35.777-6.88-5.12-6.88 14.77-6.88-6.794-6.87-27.834-6.88 73.26-6.88-13.982-6.87-40.602-6.88 13.293-6.88 49.005-6.875-61.018-6.877-10.076-6.877 77.1-6.877-8.468-6.877-12.702-6.877-5.449-6.877-49.891-6.878 32.593-6.877 18.217-6.877-82.418-6.877 26.882-6.877 23.468-6.877-24.026-6.877 80.974-6.877-59.639-6.877-53.6-6.877 11.521-6.877 49.858-6.878-16.674-6.877 23.041-6.877-12.21-6.877 9.158-6.877-32.528-6.877 34.661-6.877 28.195-6.877 27.867-6.877-8.83-6.877-29.803-6.877-97.286-6.878 21.367-6.877 32.166-6.877-40.798-6.877 47.494-6.877-35.383-6.877 20.908-6.877 1.445-6.877.919-6.877-11.291-6.877-36.598-6.878-16.969-6.877 26.455-6.877-23.993-6.877 39.518-6.877-53.665-6.877 115.175-6.877 16.805-6.877-71.356-6.877-32.134-6.877-6.499-6.878-.886-6.877-15.098-6.877 11.619-6.877 41.389-6.877-49.332-6.877 33.643-6.877-45.295-6.877 3.446-6.877 52.09-6.877-5.055-6.877 5.35-6.878-25.011-6.877 2.757-6.877-24.42-6.877 12.703-6.877-16.937-6.877 22.91-6.877-2.724-6.877 4.694-6.877-49.431-6.877 8.501-6.878 26.455-6.877-8.304-6.877 14.179-6.877-27.735-6.877 24.519-6.877-20.679-6.877-.919-6.877 8.862-6.591 6.237-6.877-16.74-6.877 7.516-6.877-7.45-6.877-11.554-6.877 33.249-6.877-13.621-6.877 3.02-6.878 8.14-6.877-24.191-6.877 69.814-6.877 4.464-6.877-14.475-6.877-14.638-6.877-28.195-6.877 33.052-6.877-45.952-6.877 20.679-6.878 107.593-6.877-37.123-6.877-64.398-6.877-9.519-6.877-20.317-6.877 64.037-6.877 1.444-6.877-20.809-6.877-49.694-6.877 24.388-6.877 26.52-6.878-20.777-6.877-38.205-6.877-7.779-6.877 29.507-6.877-13.916-6.877.426-6.877 10.733-6.877-30.623-6.877-3.939-6.877 46.477-6.878-37.287-6.877 11.324-6.877 25.569-6.877 19.563-6.877 13.522-6.877-50.35-6.877-12.374-6.877 23.862-6.877 54.913-6.877-33.578-6.878 6.893-6.877 2.659-6.877-44.016-6.877-18.512-6.877 7.353-6.877 3.873-6.877-18.709-6.877-15.92-6.877 56.554-6.877 60.755-6.878-35.219-6.877-33.774-6.877 11.947-6.877-43.687-6.877-37.812-6.877-17.133-6.877 7.68L6.68 84.662-.197 98.546l-6.877-8.305-6.84-24.288" stroke="url(#paint2_linear_205_14)" stroke-linecap="round" stroke-linejoin="round"/><path d="M36.888 259H35.78v-7.123c0-.592.018-1.153.055-1.682a7.154 7.154 0 01-.321.301c-.119.105-.661.549-1.627 1.333l-.602-.779 2.646-2.044h.957V259zm12.332-7.492h1.244l-3.233 3.616 3.5 3.876h-1.327l-3.418-3.794V259h-1.134v-7.492h1.134v3.643l3.234-3.643zm8.982 1.88c0 .487-.141.859-.424 1.114-.278.251-.67.419-1.175.506v.061c.638.087 1.102.274 1.394.561.296.287.444.683.444 1.189 0 .698-.257 1.235-.772 1.614-.51.378-1.258.567-2.242.567h-3.302v-7.492h3.288c1.86 0 2.79.626 2.79 1.88zm-.895 3.356c0-.405-.155-.699-.465-.882-.306-.187-.814-.28-1.525-.28H53.26v2.468h2.085c1.308 0 1.962-.435 1.962-1.306zm-.212-3.247c0-.365-.142-.622-.424-.772-.278-.155-.702-.233-1.272-.233h-2.14v2.112h1.922c.702 0 1.196-.086 1.483-.259.287-.173.43-.456.43-.848zM64.703 259l-.225-1.066h-.055c-.374.469-.748.788-1.121.957-.37.164-.832.246-1.388.246-.743 0-1.326-.192-1.75-.575-.42-.382-.629-.927-.629-1.633 0-1.513 1.21-2.306 3.63-2.379l1.271-.041v-.465c0-.588-.127-1.021-.382-1.299-.25-.282-.654-.424-1.21-.424-.625 0-1.331.192-2.12.575l-.348-.869c.37-.2.772-.357 1.21-.471a5.293 5.293 0 011.326-.171c.893 0 1.554.198 1.982.594.433.397.65 1.033.65 1.908V259h-.84zm-2.563-.8c.706 0 1.26-.193 1.66-.581.406-.387.61-.93.61-1.627v-.677l-1.136.048c-.902.032-1.554.173-1.955.424-.396.246-.594.631-.594 1.155 0 .411.123.723.369.937.25.214.599.321 1.046.321zm9.235.937c-.488 0-.934-.089-1.34-.267a2.542 2.542 0 01-1.012-.834h-.082c.055.438.082.852.082 1.244v3.083H67.89v-10.855h.922l.158 1.025h.054c.292-.41.632-.706 1.019-.888.387-.183.832-.274 1.333-.274.993 0 1.76.34 2.297 1.019.542.679.813 1.631.813 2.857 0 1.231-.275 2.188-.827 2.871-.547.679-1.308 1.019-2.283 1.019zm-.164-6.802c-.766 0-1.32.212-1.661.636-.342.424-.517 1.098-.527 2.023v.253c0 1.053.176 1.807.527 2.263.35.451.913.677 1.688.677.647 0 1.153-.263 1.518-.787.369-.524.554-1.246.554-2.167 0-.934-.185-1.649-.554-2.146-.365-.501-.88-.752-1.545-.752zm10.315.144h-2.433V259h-1.135v-6.521h-2.406v-.971h5.974v.971zM87.617 259l-.225-1.066h-.055c-.374.469-.748.788-1.121.957-.37.164-.832.246-1.388.246-.743 0-1.326-.192-1.75-.575-.42-.382-.629-.927-.629-1.633 0-1.513 1.21-2.306 3.63-2.379l1.272-.041v-.465c0-.588-.128-1.021-.383-1.299-.25-.282-.654-.424-1.21-.424-.624 0-1.33.192-2.12.575l-.348-.869c.37-.2.772-.357 1.21-.471a5.292 5.292 0 011.326-.171c.893 0 1.554.198 1.983.594.433.397.649 1.033.649 1.908V259h-.84zm-2.563-.8c.706 0 1.26-.193 1.66-.581.406-.387.61-.93.61-1.627v-.677l-1.135.048c-.903.032-1.555.173-1.956.424-.396.246-.594.631-.594 1.155 0 .411.123.723.369.937.25.214.6.321 1.046.321zm11.334.8h-1.149v-6.521H92.99c-.123 1.622-.294 2.909-.512 3.862-.22.952-.504 1.65-.855 2.092-.346.442-.788.663-1.326.663-.246 0-.442-.028-.588-.082v-.841c.1.027.214.041.342.041.524 0 .94-.554 1.25-1.661.31-1.108.545-2.789.705-5.045h4.382V259zm95.865 0h-6.569v-.978l2.631-2.645c.803-.811 1.331-1.39 1.586-1.736.256-.347.447-.684.575-1.012a2.91 2.91 0 00.191-1.06c0-.533-.162-.954-.485-1.264-.324-.315-.773-.472-1.347-.472a3.41 3.41 0 00-1.183.205c-.369.137-.781.385-1.237.745l-.602-.772c.921-.766 1.924-1.149 3.008-1.149.939 0 1.675.242 2.208.725.533.478.8 1.123.8 1.934 0 .634-.178 1.261-.533 1.88-.356.62-1.021 1.404-1.996 2.352l-2.188 2.14v.054h5.141V259zm9.967-7.492h1.244l-3.234 3.616 3.5 3.876h-1.326l-3.418-3.794V259h-1.134v-7.492h1.134v3.643l3.234-3.643zm8.982 1.88c0 .487-.141.859-.424 1.114-.278.251-.67.419-1.175.506v.061c.638.087 1.102.274 1.394.561.296.287.444.683.444 1.189 0 .698-.257 1.235-.772 1.614-.51.378-1.258.567-2.242.567h-3.302v-7.492h3.288c1.859 0 2.789.626 2.789 1.88zm-.895 3.356c0-.405-.155-.699-.465-.882-.306-.187-.814-.28-1.525-.28h-2.057v2.468h2.085c1.308 0 1.962-.435 1.962-1.306zm-.212-3.247c0-.365-.142-.622-.424-.772-.278-.155-.702-.233-1.272-.233h-2.139v2.112h1.921c.701 0 1.196-.086 1.483-.259.287-.173.431-.456.431-.848zm7.608 5.503l-.225-1.066h-.055c-.374.469-.748.788-1.121.957-.369.164-.832.246-1.388.246-.743 0-1.326-.192-1.75-.575-.419-.382-.629-.927-.629-1.633 0-1.513 1.21-2.306 3.63-2.379l1.272-.041v-.465c0-.588-.128-1.021-.383-1.299-.251-.282-.654-.424-1.21-.424-.625 0-1.331.192-2.119.575l-.349-.869c.369-.2.772-.357 1.21-.471a5.29 5.29 0 011.326-.171c.893 0 1.554.198 1.983.594.432.397.649 1.033.649 1.908V259h-.841zm-2.563-.8c.706 0 1.26-.193 1.661-.581.405-.387.608-.93.608-1.627v-.677l-1.135.048c-.902.032-1.554.173-1.955.424-.396.246-.594.631-.594 1.155 0 .411.123.723.369.937.25.214.599.321 1.046.321zm9.235.937c-.488 0-.934-.089-1.34-.267a2.546 2.546 0 01-1.012-.834h-.082c.055.438.082.852.082 1.244v3.083h-1.134v-10.855h.923l.157 1.025h.054c.292-.41.632-.706 1.019-.888.387-.183.832-.274 1.333-.274.993 0 1.759.34 2.297 1.019.542.679.813 1.631.813 2.857 0 1.231-.275 2.188-.827 2.871-.547.679-1.308 1.019-2.283 1.019zm-.164-6.802c-.766 0-1.319.212-1.661.636-.342.424-.517 1.098-.527 2.023v.253c0 1.053.176 1.807.527 2.263.351.451.914.677 1.688.677.647 0 1.153-.263 1.518-.787.369-.524.554-1.246.554-2.167 0-.934-.185-1.649-.554-2.146-.365-.501-.88-.752-1.545-.752zm10.315.144h-2.433V259h-1.135v-6.521h-2.406v-.971h5.974v.971zm6.091 6.521l-.225-1.066h-.055c-.374.469-.747.788-1.121.957-.369.164-.832.246-1.388.246-.743 0-1.326-.192-1.75-.575-.419-.382-.629-.927-.629-1.633 0-1.513 1.21-2.306 3.63-2.379l1.272-.041v-.465c0-.588-.128-1.021-.383-1.299-.251-.282-.654-.424-1.21-.424-.625 0-1.331.192-2.119.575l-.349-.869c.369-.2.772-.357 1.21-.471a5.29 5.29 0 011.326-.171c.893 0 1.554.198 1.983.594.433.397.649 1.033.649 1.908V259h-.841zm-2.563-.8c.706 0 1.26-.193 1.661-.581.405-.387.608-.93.608-1.627v-.677l-1.135.048c-.902.032-1.554.173-1.955.424-.396.246-.594.631-.594 1.155 0 .411.123.723.369.937.25.214.599.321 1.046.321zm11.334.8h-1.149v-6.521h-2.249c-.123 1.622-.294 2.909-.512 3.862-.219.952-.504 1.65-.855 2.092-.346.442-.788.663-1.326.663-.246 0-.442-.028-.588-.082v-.841c.1.027.214.041.342.041.524 0 .941-.554 1.251-1.661.31-1.108.544-2.789.704-5.045h4.382V259z" fill="#A1A6BE"/></g><defs><linearGradient id="paint0_linear_205_14" x1="539.53" y1="48.327" x2="539.53" y2="305.592" gradientUnits="userSpaceOnUse"><stop stop-color="#0A090A"/><stop offset=".316" stop-color="#050505" stop-opacity=".32"/><stop offset=".696" stop-opacity="0"/></linearGradient><linearGradient id="paint1_linear_205_14" x1="539.53" y1="48.327" x2="576.739" y2="250.652" gradientUnits="userSpaceOnUse"><stop stop-color="#43E9FF"/><stop offset="1" stop-color="#00ABAB"/></linearGradient><linearGradient id="paint2_linear_205_14" x1="539.53" y1="48.327" x2="576.739" y2="250.652" gradientUnits="userSpaceOnUse"><stop stop-color="#43E9FF"/><stop offset="1" stop-color="#00ABAB"/></linearGradient><clipPath id="clip0_205_14"><path fill="#fff" transform="translate(.158)" d="M0 0h294v273H0z"/></clipPath></defs></svg>